# xmcd CD database file
#
# Track frame offsets:
#	150
#	45520
#	77022
#	97297
#	116097
#	138820
#
# Disc length: 2418 seconds
#
# Revision: 1
# Processed by: cddbd v1.5.1PL2 Copyright (c) Steve Scherf et al.
# Submitted via: CDex 1.60beta1-cs1
#
DISCID=49097006
DTITLE=Eddie Costa - The House Of Blue Lights
DYEAR=1959
DGENRE=Jazz
TTITLE0=The House Of Blue Lights
TTITLE1=My Funny Valentine
TTITLE2=Diane
TTITLE3=Annabelle
TTITLE4=When I Fall In Love
TTITLE5=What's To Ya
EXTD=YEAR: 1959
EXTT0=
EXTT1=
EXTT2=
EXTT3=
EXTT4=
EXTT5=
PLAYORDER=
